PathFileType	4	(X/Y/Z)	Patient4_TMGait_0pt5_02_left_39.trc.trc
DataRate	CameraRate	NumFrames	NumMarkers	Units	OrigDataRate	OrigDataStartFrame	OrigNumFrames
77.777777777778	77.777777777778	4	33	mm	77.777777777778	71	       141
Frame#	Time	Sacral			L.Shoulder			Chest			R.Shoulder			Neck			R.ASIS			L.ASIS			R.Thigh.Superior			R.Thigh.Lateral			R.Thigh.Inferior			R.Patella			L.Thigh.Superior			L.Thigh.Lateral			L.Thigh.Inferior			L.Patella			L.Shank.Superior			L.Shank.Lateral			L.Shank.Inferior			R.Shank.Superior			R.Shank.Lateral			R.Shank.Inferior			R.Heel			R.Midfoot.Superior			R.Midfoot.Lateral			R.Toe			L.Heel			L.Midfoot.Lateral			L.Midfoot.Superior			L.Toe			L.Elbow			L.Wrist			R.Elbow			R.Wrist			
		X1	Y1	Z1	X2	Y2	Z2	X3	Y3	Z3	X4	Y4	Z4	X5	Y5	Z5	X6	Y6	Z6	X7	Y7	Z7	X8	Y8	Z8	X9	Y9	Z9	X10	Y10	Z10	X11	Y11	Z11	X12	Y12	Z12	X13	Y13	Z13	X14	Y14	Z14	X15	Y15	Z15	X16	Y16	Z16	X17	Y17	Z17	X18	Y18	Z18	X19	Y19	Z19	X20	Y20	Z20	X21	Y21	Z21	X22	Y22	Z22	X23	Y23	Z23	X24	Y24	Z24	X25	Y25	Z25	X26	Y26	Z26	X27	Y27	Z27	X28	Y28	Z28	X29	Y29	Z29	X30	Y30	Z30	X31	Y31	Z31	X32	Y32	Z32	X33	Y33	Z33	

71	51.180000000000	710.811122577394	1013.298812741937	423.678725867124	937.480192788180	1423.974995083931	250.353541369905	1009.509931382405	1357.075890893959	427.924718648614	904.881025549193	1444.777787985202	583.594400894001	918.316928760906	1492.405819240151	396.930401222352	919.796752124340	947.385222664742	570.572616912391	940.188013838368	955.419232020138	295.514071979404	989.126094111717	767.118615215117	548.361155199603	937.952405257475	650.734341693999	619.745886955361	1024.646792336428	606.152585146175	540.921600381012	1055.410672256205	526.136673963034	558.310867591819	956.665665520383	736.695942522759	334.066091315875	861.925515959825	632.355947629165	261.776282449213	922.987052380120	545.714151711040	336.282217949395	911.191026516136	476.664507516406	345.681027520738	880.600566071477	407.763962474732	334.512611859410	786.608355361864	300.897287309873	275.785217217281	817.282564221515	187.780289619231	353.488054160808	1043.081159190488	440.113304624836	570.294105460923	996.148725400824	326.485372186522	638.012535504865	1066.754705280796	241.505927261132	585.742357386601	978.606224923476	53.085134565900	563.428165764710	1141.848392780624	125.813239586238	593.915974319876	1067.562321475442	48.584025374150	631.420258455525	1269.390673639372	90.318162816900	612.126195345734	676.350434815709	38.358384088408	387.921852135245	753.411106818144	34.841742626824	310.165417336746	835.479693154180	95.154803485119	341.356502073673	964.938581622241	43.832878800118	317.987461310955	1008.514952562400	1092.864126317255	106.225405205954	1254.300643577959	1008.124634054929	119.518680412592	721.310488416127	1159.892842438003	696.068053061402	649.930575650431	911.913900241604	730.791829782437	
72	51.192857142857	712.175522993656	1012.039886860830	424.975461439924	937.769481911191	1423.588661005134	252.734203774206	1009.704983199832	1356.582831215224	430.243799015296	904.631362084846	1443.736684250761	585.932689317930	918.106940981473	1491.638121876088	399.428678524235	920.687087689623	945.977630290239	572.411055601650	941.872221760990	954.612186476858	297.326724992458	988.219256952805	763.989126598345	550.854859565052	934.227699422204	647.711815952939	620.650770118249	1021.235450098617	602.957324004540	542.401453524814	1050.672892076198	523.788818343238	558.753675329513	956.693472424671	735.246005287374	335.821503271482	861.050066863077	631.642231663383	262.917446696061	920.748161240474	544.440452839995	337.545105261863	908.221969630048	475.429692668681	346.847420414232	877.130537552320	406.769468511069	335.476919868424	782.355825572984	300.744387426508	276.386205320333	811.762548773718	187.234756204007	353.922587128571	1039.665208373821	437.688273017461	570.503624226518	993.569659588042	323.003535592431	636.799433194847	1066.107493753832	239.374518178397	584.820271268312	980.729749344710	50.470201368024	560.324777685716	1143.077970373886	123.982091905384	592.803611979153	1068.883316050815	46.476133319110	629.244317180073	1270.579460046383	89.190435553062	612.146767168378	669.908808121916	38.331993183942	387.908902833117	746.968582647192	34.830111801127	310.208683890278	829.087816345809	95.041826961142	341.514391618646	958.494132649539	43.613438628565	318.035786227757	1009.025210589336	1093.069707555817	107.593321371903	1255.894819594314	1012.710770049289	122.174270833390	720.495950913657	1158.984907238566	697.048635311234	648.602817734445	910.913439984198	730.554361813137	
73	51.205714285714	713.752774614129	1010.663491030059	426.520903479241	937.900461971524	1423.187232157673	255.264467746225	1009.888601295227	1356.147089469424	432.691492839439	904.317054597164	1442.618039673470	588.451899264775	917.755525012499	1490.839986135153	402.087877330240	921.909829339564	944.519158768425	574.331860513119	943.736117110096	953.774502823763	299.265944425967	988.039927972931	761.126596656741	553.349984353862	931.190970988398	644.757717124337	621.256526331415	1018.748502213483	600.061479563373	543.835429791340	1046.645146648225	521.284733314738	559.105091833402	956.854359951492	733.696308845103	337.538598821883	860.071350445793	630.933431516723	264.146280557975	918.434505839699	543.137010202560	338.788922172485	905.169130170604	474.177085151231	348.034634709047	873.567207336179	405.803146016459	336.459863118539	777.980794227740	300.637105310694	277.019735262507	806.189910628242	186.712217654517	354.346152381565	1036.302411547675	434.870460871434	570.469678171784	989.964833369450	319.582755421551	635.213672086317	1063.572277293826	236.736975603585	583.581090407741	979.206422805230	48.384183788815	557.037082546672	1141.204270015694	121.433173458909	591.378497371303	1066.461396627852	44.477901327495	626.983411871311	1268.303947976362	86.347054297660	612.039645769887	663.450582395353	38.262232711791	387.888121121812	740.522436441932	34.794656428430	310.256015351583	822.678336327790	94.933600068448	341.661649781252	952.050728854605	43.383941939082	318.076441095891	1009.257395978769	1093.114886822693	109.225471450967	1256.927054641350	1016.349665977749	124.976236105334	720.462993540781	1157.356371202722	698.258320115202	649.057339835989	908.867915365075	730.347346203711	
74	51.218571428571	715.506694140658	1009.211334083621	428.293815382948	937.910427021013	1422.774892458025	257.941730225893	1010.082832563669	1355.768708034336	435.274825917940	903.955722619455	1441.433444217175	591.145942010480	917.298105131026	1490.025235315719	404.904110265662	923.441690687411	943.033661962725	576.328229665169	945.741975257588	952.921190257681	301.323900775815	988.568728103775	758.529954063772	555.807943798869	928.853495083430	641.927943123534	621.599203821834	1017.152280337374	597.468554321797	545.210742327618	1043.325084493186	518.668482794243	559.339088329054	957.124450295523	732.070556270194	339.182429283991	858.976478935424	630.240746933254	265.461744707948	916.077309290636	541.820164339364	340.006813897459	902.088585240139	472.904441337861	349.234292706031	869.945207372897	404.865413975733	337.460629449064	773.497408226882	300.593010369492	277.690178482417	800.571951397413	186.222110721963	354.757071120262	1033.105499874105	431.752197388212	570.207943628472	985.653667037235	316.243524349986	633.385331878245	1059.543627161598	233.647137339553	582.080684061153	974.605870668017	46.691660464409	553.779600479192	1136.772283617097	118.281195707956	589.669354515191	1060.960985713169	42.586392773159	624.762369462807	1263.209917123214	82.064711336446	611.707048580814	656.968828296527	38.163865587025	387.851238415430	734.072254025857	34.739540765958	310.304896813757	816.253623353173	94.837072729990	341.793273232774	945.613604114821	43.140131786621	318.106855468637	1009.200356769758	1092.977588158114	111.127052811966	1257.429360316941	1019.001216164545	127.909279315800	721.190846636448	1155.046302681109	699.697057398288	651.254906522268	905.834625825448	730.217677461116	
